<?xml version="1.0" encoding="UTF-8" standalone="no"?>
<svg
   xmlns:dc="http://purl.org/dc/elements/1.1/"
   xmlns:cc="http://creativecommons.org/ns#"
   xmlns:rdf="http://www.w3.org/1999/02/22-rdf-syntax-ns#"
   xmlns:svg="http://www.w3.org/2000/svg"
   xmlns="http://www.w3.org/2000/svg"
   xmlns:sodipodi="http://sodipodi.sourceforge.net/DTD/sodipodi-0.dtd"
   xmlns:inkscape="http://www.inkscape.org/namespaces/inkscape"
   version="1.1"
   id="svg2"
   viewBox="0 0 12 12"
   height="12"
   width="12"
   inkscape:version="0.91 r13725"
   sodipodi:docname="close-black.svg">
  <sodipodi:namedview
     pagecolor="#ffffff"
     bordercolor="#666666"
     borderopacity="1"
     objecttolerance="10"
     gridtolerance="10"
     guidetolerance="10"
     inkscape:pageopacity="0"
     inkscape:pageshadow="2"
     inkscape:window-width="1920"
     inkscape:window-height="1017"
     id="namedview9"
     showgrid="false"
     showborder="true"
     inkscape:zoom="7.375"
     inkscape:cx="-0.88135593"
     inkscape:cy="16"
     inkscape:window-x="-8"
     inkscape:window-y="-8"
     inkscape:window-maximized="1"
     inkscape:current-layer="svg2" />
  <defs
     id="defs4" />
  <metadata
     id="metadata7">
    <rdf:RDF>
      <cc:Work
         rdf:about="">
        <dc:format>image/svg+xml</dc:format>
        <dc:type
           rdf:resource="http://purl.org/dc/dcmitype/StillImage" />
        <dc:title></dc:title>
      </cc:Work>
    </rdf:RDF>
  </metadata>
  <g
     transform="matrix(0.375,0,0,0.375,-2.9802323e-8,-382.63579)"
     id="layer1">
    <g
       style="font-style:normal;font-variant:normal;font-weight:normal;font-stretch:normal;font-size:39.18367386px;line-height:125%;font-family:'GLYPHICONS Halflings';-inkscape-font-specification:'GLYPHICONS Halflings';letter-spacing:0px;word-spacing:0px;fill:#000000;fill-opacity:1;stroke:none;stroke-width:1px;stroke-linecap:butt;stroke-linejoin:miter;stroke-opacity:1"
       id="text4136">
      <path
         d="m 25.926531,1020.5907 5.812245,5.8449 Q 32,1026.6968 32,1027.056 q 0,0.3266 -0.261224,0.5551 l -8.718368,8.751 8.718368,8.7511 Q 32,1045.3417 32,1045.7009 q 0,0.3265 -0.261224,0.5878 l -5.812245,5.8122 q -0.261225,0.2612 -0.620408,0.2612 -0.326531,0 -0.555102,-0.2612 L 16,1043.3826 l -8.7510203,8.7183 q -0.2285714,0.2612 -0.5877551,0.2612 -0.3265306,0 -0.5877551,-0.2612 l -5.81224493,-5.8122 Q 7.947286e-8,1046.0274 7.947286e-8,1045.7009 q 0,-0.3592 0.26122449052714,-0.5877 l 8.71836743,-8.7511 -8.71836743,-8.751 Q 7.947286e-8,1027.3826 7.947286e-8,1027.056 q 0,-0.3592 0.26122449052714,-0.6204 l 5.81224493,-5.8122 q 0.2612245,-0.2613 0.5877551,-0.2613 0.3591837,0 0.5877551,0.2613 L 16,1029.3417 l 8.751021,-8.751 q 0.228571,-0.2286 0.555102,-0.2286 0.359183,0 0.620408,0.2286 z"
         id="path4138"
         inkscape:connector-curvature="0" />
    </g>
  </g>
</svg>
